<?xml version="1.0" encoding="UTF-8"?>
<svg id="_レイヤー_1" data-name="レイヤー_1" xmlns="http://www.w3.org/2000/svg" version="1.1" viewBox="0 0 850 300">
  <!-- Generator: Adobe Illustrator 29.8.3, SVG Export Plug-In . SVG Version: 2.1.1 Build 3)  -->
  <defs>
    <style>
      .st0 {
        fill: #4874b5;
      }

      .st1 {
        fill: #0b132e;
      }
    </style>
  </defs>
  <path class="st0" d="M144.58,151.95h0c0-4.06-3.29-7.35-7.35-7.35h-43.68v-32.59c6.93,1.46,13.38,4.64,18.77,9.27,3.21,2.76,7.99,2.64,11.25-.06h0c4.18-3.47,4.15-9.83.02-13.36-8.53-7.28-18.92-11.99-30.03-13.63v-12.95h9.73c14.91,0,27.91-11.22,28.97-26.1,1.22-17.13-12.99-31.33-30.12-30.12-14.88,1.06-26.1,14.05-26.1,28.97v9.73s-24.84,0-24.84,0c-4.79,0-8.68,3.88-8.68,8.68v.17c0,4.79,3.88,8.68,8.68,8.68h24.84v12.92c-13.04,1.89-24.99,8.01-34.32,17.69-11.37,11.81-17.29,27.36-16.67,43.79.83,21.88,13.63,40.85,31.97,50.57-8.57,7.65-13.98,18.77-13.98,31.14h17.52c0-10.27,6.43-19.05,15.47-22.57v34.68c0,3.71-2.5,7.12-6.15,7.83-4.9.95-9.21-2.79-9.21-7.53v-8.67h-17.52v7.78c0,13.41,10.09,25.13,23.47,26.03,14.67.98,26.92-10.67,26.92-25.14v-34.99c7.09,2.76,12.57,8.75,14.61,16.15,1.04,3.79,4.49,6.41,8.42,6.41h0c5.82,0,10-5.57,8.44-11.17-2.17-7.78-6.54-14.66-12.39-19.91,6.5-3.43,12.42-8.09,17.46-13.91,9.66-11.15,14.49-25.69,14.49-40.44ZM104.18,42.52c5.86,0,10.63,4.77,10.63,10.63s-4.77,10.63-10.63,10.63h-10.63v-10.63c0-5.86,4.77-10.63,10.63-10.63ZM42.55,155.02c-.44-11.62,3.74-22.62,11.78-30.97,5.98-6.21,13.48-10.34,21.7-12.05v32.61h-8c-4.84,0-8.76,3.92-8.76,8.76h0c0,4.84,3.92,8.76,8.76,8.76h8v32.59c-18.55-3.94-32.74-20.19-33.48-39.69ZM114.11,183.82c-5.8,5.58-12.88,9.3-20.55,10.91v-32.61h32.61c-1.72,8.22-5.85,15.72-12.06,21.7Z"/>
  <g>
    <path class="st1" d="M218.26,189.29h-2.87c-1.72,0-2.68-.96-2.68-2.68v-19.81c-6.6,6.89-15.98,13.69-27.85,20-1.53.86-2.87.39-3.54-1.24l-.29-.67c-.67-1.53-.19-2.78,1.34-3.54,12.34-6.32,21.92-13.3,28.9-21.72h-21.25c-1.72,0-2.68-.96-2.68-2.68v-29.09c0-1.72.96-2.68,2.68-2.68h22.68v-7.85h-29.47c-1.72,0-2.68-.96-2.68-2.68,0-1.34.96-2.01,2.68-2.01h29.47v-5.84c0-1.72.96-2.68,2.68-2.68h2.87c1.72,0,2.68.96,2.68,2.68v5.84h29.48c1.72,0,2.68.96,2.68,2.68,0,1.34-.96,2.01-2.68,2.01h-29.48v7.85h22.68c1.72,0,2.68.96,2.68,2.68v29.09c0,1.72-.96,2.68-2.68,2.68h-21.25c6.99,8.42,16.56,15.4,28.9,21.72,1.53.76,2.01,2.01,1.34,3.54l-.29.67c-.67,1.63-2.01,2.1-3.54,1.24-11.87-6.31-21.25-13.11-27.85-20v19.81c0,1.72-.96,2.68-2.68,2.68ZM195.38,140h17.32v-10.43h-17.32v10.43ZM212.71,155.22v-11.1h-17.32v11.1h17.32ZM238.26,140v-10.43h-17.32v10.43h17.32ZM220.93,155.22h17.32v-11.1h-17.32v11.1Z"/>
    <path class="st1" d="M277.78,126.89c0-1.72.96-2.68,2.68-2.68h27.94v-16.46c0-1.72.96-2.68,2.68-2.68h2.87c1.72,0,2.68.96,2.68,2.68v16.46h27.94c1.72,0,2.68.96,2.68,2.68s-.96,2.68-2.68,2.68h-27.85c1.34,22.87,12.06,41.15,28.8,51.87,1.53.86,1.82,2.1.96,3.63l-.29.58c-.86,1.53-2.2,1.92-3.64,1.05-14.07-8.23-24.69-22.01-29.76-37.71-5.26,15.69-16.17,29.47-30.34,37.71-1.44.86-2.78.48-3.64-1.05l-.29-.58c-.86-1.53-.67-2.68.67-3.54,16.94-10.62,27.66-28.9,29.09-51.96h-27.85c-1.72,0-2.68-.96-2.68-2.68Z"/>
    <path class="st1" d="M391.29,156.56c0-6.7-1.34-11.29-5.65-17.9-.86-1.34-.96-2.39-.29-3.73,3.25-6.7,6.12-14.36,8.42-22.68h-11.2v73.69c0,1.72-.96,2.68-2.68,2.68h-2.11c-1.72,0-2.68-.96-2.68-2.68v-75.6c0-1.72.96-2.68,2.68-2.68h20.29c1.72,0,2.68.96,2.68,2.68v.57c0,1.25-.09,2.01-.38,3.25-1.82,7.08-4.78,14.55-8.71,22.59,5.55,8.52,7.27,13.69,7.27,21.24,0,8.04-3.35,12.15-11.48,12.15-1.43,0-2.3-.86-2.58-2.49-.29-1.44.67-2.3,2.58-2.3h-1.05c3.64,0,4.88-1.72,4.88-8.8ZM405.74,181.15c4.69-2.77,10.24-7.27,15.31-13.4-4.88-7.66-8.33-15.6-10.24-23.06-.38-1.63.19-2.68,1.63-3.44l2.2-.96c1.72-.77,2.97-.19,3.44,1.72,1.63,6.99,4.4,13.97,7.37,19.24,4.21-6.7,7.66-15.79,10.24-26.7h-25.74v5.74c0,18.18-3.06,32.82-9.86,45.55-1.05,1.82-2.58,1.82-3.73,0l-1.34-2.11c-.77-1.24-.77-2.39-.19-3.63,4.98-10.72,7.66-25.93,7.66-44.59v-24.5c0-1.72.96-2.68,2.68-2.68h37.8c1.72,0,2.68.96,2.68,2.68,0,1.53-.96,2.3-2.68,2.3h-33.02v16.37h31.1c1.72,0,2.68.96,2.68,2.68v.86c0,1.25-.1,2.01-.38,3.25-2.87,11.87-7.27,22.11-13.59,31.39,4.69,6.22,9.67,10.81,15.02,14.07,1.44.86,1.82,2.01,1.15,3.54l-.29.67c-.76,1.63-2.01,2.01-3.64,1.15-6.89-3.83-12.44-8.52-16.75-13.88-4.59,5.26-10.81,9.95-17.03,13.21-1.53.86-2.87.29-3.54-1.34l-.19-.48c-.67-1.63-.19-2.78,1.25-3.64Z"/>
    <path class="st1" d="M475.02,182.59h-2.58c-1.72,0-2.68-.96-2.68-2.68v-66.99c0-1.72.96-2.68,2.68-2.68h19.43c1.72,0,2.68.96,2.68,2.68v60.86c0,1.72-.96,2.68-2.68,2.68h-14.16v3.44c0,1.72-.96,2.68-2.68,2.68ZM477.7,171.48h9.09v-56.08h-9.09v56.08ZM537.52,187.09c-9.57-5.55-17.42-15.6-21.53-26.89-4.31,11.29-12.34,21.44-21.92,26.89-1.53.96-2.87.38-3.54-1.24l-.29-.77c-.67-1.53-.19-2.68,1.24-3.54,12.06-7.56,20.48-23.54,20.48-41.24v-10.34c0-1.72.96-2.68,2.68-2.68h2.58c1.72,0,2.68.96,2.68,2.68v10.34c0,17.7,8.13,33.78,20.1,41.24,1.34.86,1.82,2.01,1.25,3.54l-.29.67c-.57,1.72-1.91,2.3-3.44,1.34ZM501.34,140.58c-.76,1.82-2.2,2.01-3.64.67l-1.25-1.15c-1.15-1.05-1.43-2.2-.86-3.64,4.4-11,6.99-20.86,8.61-30.34.38-1.63,1.43-2.39,3.16-2.1l2.11.38c1.72.19,2.58,1.34,2.2,3.06-.38,2.2-.86,4.59-1.53,7.18h28.23c1.72,0,2.68.96,2.68,2.68v1.24c0,1.15-.09,2.01-.38,3.25-2.1,7.66-4.78,15.03-8.9,22.3-.86,1.63-2.3,1.91-3.73.76l-1.34-.96c-1.43-1.05-1.63-2.2-.86-3.73,2.97-5.55,5.55-12.34,7.56-20.29h-24.5c-2.11,7.56-4.69,14.64-7.56,20.67Z"/>
    <path class="st1" d="M572.54,164.79c0-1.15.96-1.82,2.68-1.82h20.29c.48-2.1.96-5.26.86-8.33h-11.39c-1.72,0-2.68-.96-2.68-2.68,0,.67-.38,1.34-1.24,2.39-2.58,2.87-5.55,5.93-9,8.61-1.63,1.34-3.06,2.2-4.5,3.16-1.63,1.05-2.97.57-3.54-1.24l-.38-1.15c-.48-1.53,0-2.68,1.34-3.54,6.03-4.21,11.67-9.95,16.94-17.8h-16.17c-1.72,0-2.68-.96-2.68-2.68,0-1.25.96-1.92,2.68-1.92h18.85c.86-1.63,2.39-4.98,4.4-9.57h-17.42c-1.72,0-2.68-.96-2.68-2.68,0-1.05.96-1.63,2.68-1.63h18.85c.58-1.82,1.34-4.98,2.39-9.19h-24.11c-1.72,0-2.68-.96-2.68-2.68,0-1.34.96-2.01,2.68-2.01h24.88c.29-1.34.48-2.97.76-4.78.19-1.72,1.05-2.68,2.78-2.58l2.87.19c1.82,0,2.68,1.05,2.49,2.87-.29,1.63-.48,2.97-.67,4.31h28.71c1.72,0,2.68.96,2.68,2.68,0,1.34-.96,2.01-2.68,2.01h-29.57c-.86,3.35-1.63,6.32-2.58,9.19h29.28c1.72,0,2.68.96,2.68,2.68,0,1.05-.95,1.63-2.68,1.63h-17.32c2.01,4.59,3.54,7.94,4.4,9.57h18.76c1.72,0,2.68.96,2.68,2.68,0,1.24-.96,1.91-2.68,1.91h-16.27c5.26,7.75,10.91,13.49,17.03,17.8,1.25.86,1.73,2.01,1.25,3.44l-.29,1.05c-.57,1.82-1.91,2.49-3.54,1.44-1.24-.77-2.68-1.82-4.4-3.16-4.21-3.35-7.65-6.89-10.33-10.05,0,1.15-.96,1.72-2.68,1.72h-9.86c0,2.87-.19,5.07-.96,8.33h20.29c1.72,0,2.68.96,2.68,2.68,0,1.15-.95,1.82-2.68,1.82h-21.92s-.76.95-2.2,3.25c11.01,3.64,21.44,8.14,31.01,13.21,1.53.76,1.91,2.1,1.15,3.64l-.1.19c-.86,1.53-2.2,1.92-3.73,1.05-10.62-5.94-20.96-10.53-31.39-14.16-5.55,6.32-14.55,11.1-26.22,13.69-1.63.38-2.77-.29-3.35-1.92-.57-1.53.19-2.58,2.01-2.97,12.63-2.97,20.58-7.94,24.88-15.98h-18.66c-1.72,0-2.68-.96-2.68-2.68ZM609.58,142.39h-19.81c-.76,1.25-2.39,3.92-5.17,7.85h30.14c-2.77-3.93-4.5-6.6-5.17-7.85ZM602.69,128.23h-5.84c-.67,1.82-2.01,4.78-4.4,9.57h14.45c-2.58-5.36-3.73-8.52-4.21-9.57Z"/>
    <path class="st1" d="M674.75,141.44c-3.44,2.97-7.18,5.45-12.35,8.33-1.63.86-2.97.38-3.64-1.34l-.19-.48c-.67-1.53-.19-2.68,1.24-3.54,4.11-2.39,8.04-5.07,11.39-7.85,1.43-1.24,2.77-.96,3.63.77l.39.76c.67,1.43.48,2.49-.48,3.35ZM660.4,158.85c0-1.53.96-2.39,2.68-2.39h28.14v-7.56h-10.91c-1.72,0-2.68-.96-2.68-2.68v-31.77c0-1.72.96-2.68,2.68-2.68h8.61c.58-1.91,1.05-4.11,1.53-6.32.38-1.63,1.43-2.39,3.06-2.3l2.77.29c1.82.19,2.68,1.34,2.3,3.06-.48,2.01-.86,3.64-1.34,5.26h13.11c1.72,0,2.68.96,2.68,2.68v31.77c0,1.72-.96,2.68-2.68,2.68h-10.91v7.56h28.23c1.72,0,2.68.96,2.68,2.68,0,1.53-.96,2.39-2.68,2.39h-26.8c7.18,8.04,16.75,14.55,28.9,20.39,1.53.67,2.01,1.82,1.53,3.44l-.09.38c-.58,1.72-1.92,2.2-3.54,1.44-12.25-5.94-21.63-12.44-28.42-18.85v18.28c0,1.72-.96,2.68-2.68,2.68h-2.49c-1.72,0-2.68-.96-2.68-2.68v-18.28c-6.7,6.41-16.17,12.92-28.42,18.85-1.63.76-2.87.29-3.45-1.44l-.09-.38c-.58-1.53.09-2.87,2.01-3.73,11.87-5.74,21.25-12.25,28.33-20.1h-26.7c-1.72,0-2.68-.96-2.68-2.68ZM665.76,111.01c3.92,3.54,6.89,6.6,9.38,9.19,1.15,1.15,1.15,2.39.19,3.73l-.86,1.15c-1.05,1.53-2.49,1.63-3.73.19-3.06-3.54-6.32-6.7-9.86-9.95-1.15-1.15-1.34-2.39-.38-3.83l.58-.86c1.05-1.53,2.78-1.44,4.69.38ZM685.76,127.56h19.14v-11h-19.14v11ZM685.76,132.15v12.06h19.14v-12.06h-19.14ZM730.54,114.74c-2.58,2.97-6.12,6.51-10.62,10.53-1.34,1.24-2.68,1.15-3.83-.29l-.58-.86c-1.05-1.34-.86-2.58.29-3.73,3.06-2.77,6.31-6.12,9.76-9.95,1.24-1.34,2.68-1.34,3.83.19l.76,1.05c.96,1.24,1.15,2.3.38,3.06ZM727.1,148.81c-3.73-3.06-7.18-5.55-10.14-7.46-1.44-.96-1.82-2.1-1.05-3.64l.29-.58c.76-1.53,2.01-2.01,3.54-1.05,4.21,2.49,8.42,5.26,11.58,7.85,1.25,1.05,1.44,2.2.77,3.64l-.58,1.05c-.86,1.72-2.49,1.82-4.4.19Z"/>
    <path class="st1" d="M816.96,186.61v-1.63h-51.87v1.63c0,1.72-.96,2.68-2.68,2.68h-2.68c-1.72,0-2.68-.96-2.68-2.68v-76.56c0-1.72.96-2.68,2.68-2.68h62.59c1.72,0,2.68.96,2.68,2.68v76.56c0,1.72-.96,2.68-2.68,2.68h-2.68c-1.72,0-2.68-.96-2.68-2.68ZM816.96,180.2v-67.95h-51.87v67.95h51.87ZM807.49,119.43v7.56h4.4c1.72,0,2.68.96,2.68,2.68,0,1.43-.96,2.2-2.68,2.2h-4.4v30.34c0,10.72-.58,11.87-8.8,11.87-2.68,0-6.31-.1-11.01-.39-1.72-.09-2.58-1.05-2.68-2.77,0-1.44.96-2.2,2.78-2.1,4.31.38,11.67.86,11.67-.58v-36.36h-29.38c-1.73,0-2.68-.96-2.68-2.68,0-1.44.95-2.2,2.68-2.2h29.38v-7.56c0-1.72.96-2.68,2.68-2.68h2.68c1.72,0,2.68.96,2.68,2.68ZM783.18,158.18c-2.59-5.74-5.26-10.81-7.85-15.12-.86-1.43-.57-2.68.77-3.73l1.53-1.05c1.44-1.05,2.78-.86,3.64.67,3.26,5.26,6.12,10.62,8.61,16.08.67,1.53.29,2.78-1.05,3.64l-1.72,1.15c-1.63,1.05-2.97.38-3.92-1.63Z"/>
  </g>
  <g>
    <path class="st1" d="M396.9,223.12v-20.31c0-.55.31-.86.86-.86h.95c.55,0,.86.31.86.86v8.53h8.13v-8.53c0-.55.31-.86.86-.86h.95c.55,0,.86.31.86.86v20.31c0,.55-.31.86-.86.86h-.95c-.56,0-.86-.31-.86-.86v-10.25h-8.13v10.25c0,.55-.31.86-.86.86h-.95c-.55,0-.86-.31-.86-.86Z"/>
    <path class="st1" d="M419.81,202.19v1.14c0,.56-.31.86-.86.86h-.92c-.55,0-.86-.31-.86-.86v-1.14c0-.56.31-.86.86-.86h.92c.56,0,.86.31.86.86ZM419.81,209.27v13.85c0,.55-.31.86-.86.86h-.92c-.55,0-.86-.31-.86-.86v-13.85c0-.56.31-.86.86-.86h.92c.56,0,.86.31.86.86Z"/>
    <path class="st1" d="M435.63,208.41h.77c.55,0,.86.31.86.86v14c0,5.02-1.94,7.54-6.4,7.54-1.23,0-2.4-.18-3.39-.52-.46-.15-.68-.46-.68-.98,0-.61.4-.83,1.02-.55,1.08.46,1.97.65,3.05.65,2.62,0,3.81-1.72,3.81-6.16v-.86c-.92.99-2.28,1.6-3.85,1.6-3.38,0-5.48-3.08-5.48-8,0-5.17,2.1-7.88,5.48-7.88,1.57,0,2.96.68,3.91,1.78v-.61c.03-.56.34-.86.89-.86ZM431.32,209.51c-2.09,0-3.35,2.16-3.35,6.47s1.42,6.59,3.35,6.59c1.66,0,3.35-1.97,3.35-4.71v-3.57c0-2.74-1.69-4.77-3.35-4.77Z"/>
    <path class="st1" d="M450.94,213.21c0-2.77-.77-3.6-2.86-3.6-1.17,0-2.43.28-3.91.93-.62.24-1.02,0-1.02-.65,0-.49.18-.8.65-.98,1.32-.52,2.8-.8,4.28-.8,4.15,0,5.48,1.54,5.48,5.72v9.3c0,.55-.31.86-.86.86h-.77c-.56,0-.86-.31-.89-.86v-.92c-.95,1.29-2.49,2.09-4.37,2.09-2.62,0-4.25-1.97-4.25-4.62,0-3.08,2.25-5.41,7.36-5.41h1.17v-1.05ZM449.77,215.52c-3.11,0-4.74,1.29-4.74,3.97,0,2.09.89,3.29,2,3.29,2.19,0,3.91-2.1,3.91-5.6v-1.66h-1.17Z"/>
    <path class="st1" d="M461.26,212.1c0,1.66.71,2.55,2.58,3.08,3.88,1.05,5.05,2.37,5.05,4.92s-1.91,4.19-5.36,4.19c-1.47,0-2.86-.31-4-.8-.43-.19-.61-.52-.61-1.02,0-.62.4-.77,1.02-.46,1.23.62,2.31.86,3.44.86,1.91,0,2.9-.77,2.9-2.77,0-1.72-.74-2.71-2.8-3.29-3.54-1.02-4.83-2.43-4.83-4.52,0-2.43,1.82-4.19,5.2-4.19,1.32,0,2.68.25,3.91.68.46.15.67.49.67.98,0,.56-.49.68-1.26.37-1.14-.43-2.16-.62-3.17-.62-1.82,0-2.74.71-2.74,2.59Z"/>
    <path class="st1" d="M474.16,223.12v-20.93c0-.56.31-.86.86-.86h.89c.56,0,.86.31.86.86v7.85c1.05-1.2,2.43-1.94,4-1.94,3.35,0,4.71,1.91,4.71,6.56v8.46c0,.55-.31.86-.86.86h-.86c-.56,0-.86-.31-.86-.86v-8.06c0-4.34-.8-5.45-2.64-5.45-1.48,0-3.48,2.46-3.48,4.87v8.65c0,.55-.31.86-.86.86h-.89c-.55,0-.86-.31-.86-.86Z"/>
    <path class="st1" d="M494.28,202.19v1.14c0,.56-.31.86-.86.86h-.92c-.55,0-.86-.31-.86-.86v-1.14c0-.56.31-.86.86-.86h.92c.56,0,.86.31.86.86ZM494.28,209.27v13.85c0,.55-.31.86-.86.86h-.92c-.55,0-.86-.31-.86-.86v-13.85c0-.56.31-.86.86-.86h.92c.56,0,.86.31.86.86Z"/>
    <path class="st1" d="M515.93,224.29c-5.32,0-8.37-4.28-8.37-11.33s3.05-11.33,8.37-11.33,8.37,4.28,8.37,11.33c0,3.54-.62,6.16-2.19,8.34-1.32,1.85-3.51,2.99-6.19,2.99ZM515.93,203.27c-3.51,0-5.63,3.26-5.63,9.69s2.12,9.69,5.63,9.69,5.63-3.26,5.63-9.69c0-3.2-.55-5.78-1.45-7.2-1.14-1.82-2.43-2.49-4.19-2.49Z"/>
    <path class="st1" d="M532.01,212.1c0,1.66.71,2.55,2.58,3.08,3.88,1.05,5.05,2.37,5.05,4.92s-1.91,4.19-5.36,4.19c-1.47,0-2.86-.31-4-.8-.43-.19-.61-.52-.61-1.02,0-.62.4-.77,1.02-.46,1.23.62,2.31.86,3.44.86,1.91,0,2.9-.77,2.9-2.77,0-1.72-.74-2.71-2.8-3.29-3.54-1.02-4.83-2.43-4.83-4.52,0-2.43,1.82-4.19,5.2-4.19,1.32,0,2.68.25,3.91.68.46.15.67.49.67.98,0,.56-.49.68-1.26.37-1.14-.43-2.16-.62-3.17-.62-1.82,0-2.74.71-2.74,2.59Z"/>
    <path class="st1" d="M552.95,213.21c0-2.77-.77-3.6-2.86-3.6-1.17,0-2.43.28-3.91.93-.62.24-1.02,0-1.02-.65,0-.49.18-.8.65-.98,1.32-.52,2.8-.8,4.28-.8,4.15,0,5.48,1.54,5.48,5.72v9.3c0,.55-.31.86-.86.86h-.77c-.56,0-.86-.31-.89-.86v-.92c-.95,1.29-2.49,2.09-4.37,2.09-2.62,0-4.25-1.97-4.25-4.62,0-3.08,2.25-5.41,7.36-5.41h1.17v-1.05ZM551.78,215.52c-3.11,0-4.74,1.29-4.74,3.97,0,2.09.89,3.29,2,3.29,2.19,0,3.91-2.1,3.91-5.6v-1.66h-1.17Z"/>
    <path class="st1" d="M561.62,223.12v-20.93c0-.56.31-.86.86-.86h.83c.55,0,.86.31.86.86v12.74l5.42-6.06c.31-.34.62-.46,1.08-.46h.52c.74,0,.95.49.46,1.04l-5.79,6.43,5.88,7.05c.49.55.25,1.04-.49,1.04h-.52c-.46,0-.77-.15-1.04-.49l-5.51-6.59v6.22c0,.55-.31.86-.86.86h-.83c-.55,0-.86-.31-.86-.86Z"/>
    <path class="st1" d="M585.29,213.21c0-2.77-.77-3.6-2.86-3.6-1.17,0-2.43.28-3.91.93-.62.24-1.02,0-1.02-.65,0-.49.18-.8.65-.98,1.32-.52,2.8-.8,4.28-.8,4.15,0,5.48,1.54,5.48,5.72v9.3c0,.55-.31.86-.86.86h-.77c-.56,0-.86-.31-.89-.86v-.92c-.95,1.29-2.49,2.09-4.37,2.09-2.62,0-4.25-1.97-4.25-4.62,0-3.08,2.25-5.41,7.36-5.41h1.17v-1.05ZM584.12,215.52c-3.11,0-4.74,1.29-4.74,3.97,0,2.09.89,3.29,2,3.29,2.19,0,3.91-2.1,3.91-5.6v-1.66h-1.17Z"/>
    <path class="st1" d="M613.06,223.21l-3.66-20.34c-.12-.58.15-.93.74-.93h.95c.49,0,.77.28.86.8l2.86,17.05,2.99-17.08c.09-.52.37-.77.86-.77h1.75c.49,0,.77.25.86.77l3.05,17.08,2.83-17.05c.09-.52.37-.8.86-.8h.89c.61,0,.86.34.77.93l-3.69,20.34c-.09.52-.4.77-.89.77h-1.69c-.49,0-.8-.24-.89-.77l-2.99-17.14-2.99,17.14c-.09.52-.37.77-.89.77h-1.69c-.49,0-.8-.24-.89-.77Z"/>
    <path class="st1" d="M638.28,202.19v1.14c0,.56-.31.86-.86.86h-.92c-.55,0-.86-.31-.86-.86v-1.14c0-.56.31-.86.86-.86h.92c.56,0,.86.31.86.86ZM638.28,209.27v13.85c0,.55-.31.86-.86.86h-.92c-.55,0-.86-.31-.86-.86v-13.85c0-.56.31-.86.86-.86h.92c.56,0,.86.31.86.86Z"/>
    <path class="st1" d="M644.56,223.12v-13.85c0-.56.31-.86.86-.86h.77c.55,0,.86.31.86.86v.77c1.08-1.2,2.49-1.94,4.13-1.94,3.35,0,4.71,1.97,4.71,6.56v8.46c0,.55-.31.86-.86.86h-.86c-.56,0-.86-.31-.86-.86v-8.16c0-4.25-.86-5.45-2.65-5.45-1.48,0-3.48,2.4-3.48,4.77v8.83c0,.55-.31.86-.86.86h-.89c-.56,0-.86-.31-.86-.86Z"/>
    <path class="st1" d="M671.52,201.33h.89c.55,0,.86.31.86.86v20.93c0,.55-.31.86-.86.86h-.77c-.56,0-.86-.31-.86-.86v-.65c-.98,1.14-2.4,1.82-4.03,1.82-3.42,0-5.63-3.2-5.63-8.09s2.09-8.09,5.63-8.09c1.57,0,2.95.65,3.91,1.66v-7.57c0-.56.31-.86.86-.86ZM667.18,209.51c-2.16,0-3.48,2.22-3.48,6.68s1.42,6.68,3.48,6.68c1.66,0,3.48-1.91,3.48-4.31v-4.74c0-2.37-1.75-4.31-3.48-4.31Z"/>
    <path class="st1" d="M695.33,224.29c-5.32,0-8.37-4.28-8.37-11.33s3.05-11.33,8.37-11.33,8.37,4.28,8.37,11.33c0,3.54-.62,6.16-2.19,8.34-1.32,1.85-3.51,2.99-6.19,2.99ZM695.33,203.27c-3.51,0-5.63,3.26-5.63,9.69s2.12,9.69,5.63,9.69,5.63-3.26,5.63-9.69c0-3.2-.55-5.78-1.45-7.2-1.14-1.82-2.43-2.49-4.19-2.49Z"/>
    <path class="st1" d="M711.18,223.98h-.99c-.55,0-.86-.31-.86-.86v-13.85c0-.56.31-.86.86-.86h.86c.55,0,.86.31.86.86v1.69c1.14-1.51,3.14-2.55,5.39-2.55.55,0,.83.31.83.86,0,.49-.31.77-.86.77h.03c-3.26,0-5.26,2.25-5.26,6.59v6.49c0,.55-.31.86-.86.86Z"/>
    <path class="st1" d="M724.46,216.19c0,4.68,1.38,6.62,4,6.62.89,0,1.72-.18,2.68-.58.62-.24,1.02-.03,1.02.62,0,.46-.22.77-.67.92-1.02.34-2.1.52-3.17.52-4.28,0-6.53-2.92-6.53-8.09s2.22-8.09,6.31-8.09c1.14,0,2.25.15,3.23.4.49.13.71.46.71.95,0,.62-.43.83-1.11.58-.92-.31-1.78-.46-2.71-.46-2.43,0-3.75,2.09-3.75,6.62Z"/>
    <path class="st1" d="M737.58,223.12v-20.93c0-.56.31-.86.86-.86h.89c.56,0,.86.31.86.86v7.85c1.05-1.2,2.43-1.94,4-1.94,3.35,0,4.71,1.91,4.71,6.56v8.46c0,.55-.31.86-.86.86h-.86c-.56,0-.86-.31-.86-.86v-8.06c0-4.34-.8-5.45-2.64-5.45-1.48,0-3.48,2.46-3.48,4.87v8.65c0,.55-.31.86-.86.86h-.89c-.55,0-.86-.31-.86-.86Z"/>
    <path class="st1" d="M760.9,222.94c.93,0,1.88-.22,3.08-.74.62-.31,1.02-.06,1.02.61,0,.43-.22.71-.68.86-1.17.4-2.43.62-3.6.62-4.43,0-6.68-2.83-6.68-8.09s2.25-8.09,6.16-8.09,5.66,2.74,5.66,7.88c0,.06,0,.15-.03.31,0,.18-.28.31-.83.31h-8.34c.06,4.37,1.54,6.34,4.25,6.34ZM760.2,209.45c-2.16,0-3.39,1.79-3.54,5.76h6.65c0-3.94-1.17-5.76-3.11-5.76Z"/>
    <path class="st1" d="M773.11,212.1c0,1.66.71,2.55,2.58,3.08,3.88,1.05,5.05,2.37,5.05,4.92s-1.91,4.19-5.36,4.19c-1.47,0-2.86-.31-4-.8-.43-.19-.61-.52-.61-1.02,0-.62.4-.77,1.02-.46,1.23.62,2.31.86,3.44.86,1.91,0,2.9-.77,2.9-2.77,0-1.72-.74-2.71-2.8-3.29-3.54-1.02-4.83-2.43-4.83-4.52,0-2.43,1.82-4.19,5.2-4.19,1.32,0,2.68.25,3.91.68.46.15.67.49.67.98,0,.56-.49.68-1.26.37-1.14-.43-2.16-.62-3.17-.62-1.82,0-2.74.71-2.74,2.59Z"/>
    <path class="st1" d="M788.98,203.17h.86c.55,0,.86.31.86.86v4.98h3.94c.55,0,.86.31.86.86,0,.37-.31.56-.86.56h-3.94v8.62c0,3.17.52,3.81,2,3.81.49,0,.95-.06,1.45-.24.61-.19.98.03.98.67,0,.37-.22.62-.71.74-.65.15-1.36.25-2.03.25-3.33,0-4.28-1.23-4.28-5.02v-8.83h-2c-.56,0-.86-.31-.86-.86,0-.37.31-.56.86-.56h2v-4.98c0-.56.31-.86.86-.86Z"/>
    <path class="st1" d="M802.62,223.98h-.99c-.55,0-.86-.31-.86-.86v-13.85c0-.56.31-.86.86-.86h.86c.55,0,.86.31.86.86v1.69c1.14-1.51,3.14-2.55,5.39-2.55.55,0,.83.31.83.86,0,.49-.31.77-.86.77h.03c-3.26,0-5.26,2.25-5.26,6.59v6.49c0,.55-.31.86-.86.86Z"/>
    <path class="st1" d="M822.38,213.21c0-2.77-.77-3.6-2.86-3.6-1.17,0-2.43.28-3.91.93-.62.24-1.02,0-1.02-.65,0-.49.18-.8.65-.98,1.32-.52,2.8-.8,4.28-.8,4.15,0,5.48,1.54,5.48,5.72v9.3c0,.55-.31.86-.86.86h-.77c-.56,0-.86-.31-.89-.86v-.92c-.95,1.29-2.49,2.09-4.37,2.09-2.62,0-4.25-1.97-4.25-4.62,0-3.08,2.25-5.41,7.36-5.41h1.17v-1.05ZM821.21,215.52c-3.11,0-4.74,1.29-4.74,3.97,0,2.09.89,3.29,2,3.29,2.19,0,3.91-2.1,3.91-5.6v-1.66h-1.17Z"/>
  </g>
</svg>